# xmcd CD database file
#
# Track frame offsets:
#	150
#	11077
#	21522
#	30427
#	41610
#	51227
#	62472
#	71780
#	80722
#	91460
#	100232
#	109647
#	117402
#	127127
#	139195
#
# Disc length: 1982 seconds
#
# Revision: 0
# Processed by: cddbd v1.5.2PL0 Copyright (c) Steve Scherf et al.
# Submitted via: CDex 1.51
#
DISCID=d507bc0f
DTITLE=Lee Dorsey - Ya Ya
DYEAR=1900
DGENRE=Blues
TTITLE0=Ya Ya
TTITLE1=Give Me You
TTITLE2=Do-Re-Mi
TTITLE3=People Gonna Talk
TTITLE4=Chin Chin
TTITLE5=Mess Around
TTITLE6=Eenie Meenie Mini Mo
TTITLE7=One And One
TTITLE8=Yum Yum
TTITLE9=Ixie Dixie Pixie Pie
TTITLE10=Behind The Eight-Ball
TTITLE11=Hoodlum Joe
TTITLE12=Give Me Your Love
TTITLE13=You Are My Sunshine
TTITLE14=Great Googa Mooga
EXTD=
EXTT0=
EXTT1=
EXTT2=
EXTT3=
EXTT4=
EXTT5=
EXTT6=
EXTT7=
EXTT8=
EXTT9=
EXTT10=
EXTT11=
EXTT12=
EXTT13=
EXTT14=
PLAYORDER=
